<?xml version="1.0" standalone="no"?><!DOCTYPE svg PUBLIC "-//W3C//DTD SVG 1.1//EN" "http://www.w3.org/Graphics/SVG/1.1/DTD/svg11.dtd"><svg t="1573745890343" class="icon" viewBox="0 0 1024 1024" version="1.1" xmlns="http://www.w3.org/2000/svg" p-id="3010" xmlns:xlink="http://www.w3.org/1999/xlink" width="200" height="200"><defs><style type="text/css"></style></defs><path d="M331.268 71.323l332.336 331.005v-338.554s-137.734-67.977-332.336 7.556z" fill="#8a8a8a" p-id="3011"></path><path d="M696.036 74.879l0.889 468.734 239.477-239.477s-49.318-145.286-240.364-229.259z" fill="#8a8a8a" p-id="3012"></path><path d="M951.507 335.682l-331.005 332.336h338.554c0-0.448 67.977-138.175-7.556-332.336z" fill="#8a8a8a" p-id="3013"></path><path d="M947.953 700.006l-468.734 0.889 239.477 239.477c-0.448 0 144.842-49.318 229.259-240.364z" fill="#dbdbdb" p-id="3014" data-spm-anchor-id="a313x.7781069.0.i4" class="selected"></path><path d="M687.146 955.475l-331.891-331.005v338.554s137.734 67.977 331.891-7.556z" fill="#8a8a8a" p-id="3015"></path><path d="M322.384 951.922l-0.889-468.734-239.477 239.477c0.448 0 49.764 145.286 240.364 229.259z" fill="#8a8a8a" p-id="3016"></path><path d="M67.354 691.12l331.005-331.891h-338.999s-67.536 137.734 7.997 331.891z" fill="#8a8a8a" p-id="3017"></path><path d="M70.91 326.793l468.734-0.889-239.477-239.477s-145.286 49.318-229.259 240.364z" fill="#8a8a8a" p-id="3018"></path></svg>