<svg t="1573747716440" class="icon" viewBox="0 0 1280 1024" version="1.1" xmlns="http://www.w3.org/2000/svg" p-id="4833" width="200" height="200"><path d="M1005.824 408.064a30.0032 30.0032 0 0 0 39.424-16.0256A148.4288 148.4288 0 0 0 850.944 197.632a30.3104 30.3104 0 0 0-16.0256 39.5264 30.3104 30.3104 0 0 0 39.5776 16.0256 88.064 88.064 0 0 1 115.3024 115.2512 29.9008 29.9008 0 0 0 15.9744 39.5776z m-504.32 544.3584c-204.8 0-370.8928-110.0288-370.8928-245.6576s165.888-245.6064 370.8928-245.6064c204.8 0 370.9952 109.9776 370.9952 245.6064 0 135.8336-166.1952 245.6576-370.9952 245.6576z m429.568-448.9216c-20.1728-1.8432-38.4512-13.0048-25.088-35.9424 13.4144-22.9888 38.0416-89.9072-9.4208-137.0112-47.4624-47.2576-151.2448-29.3376-224.768 1.1776-73.216 30.5152-69.2736 9.216-67.072-11.6736 2.5088-22.016 41.984-145.2544-78.8992-160.1536-158.4128-19.4048-361.6768 176.6912-433.4592 289.792C-16.1792 620.2368 1.024 735.744 1.024 735.744h0.768c13.0048 159.3856 247.7056 286.3616 535.3472 286.3616 247.296 0 455.68-94.0032 517.2736-221.696 0 0 0.2048-0.6144 0.768-1.536 6.4512-13.7728 11.264-27.648 14.336-42.1888 8.6528-34.304 15.2576-84.0704-0.9216-133.0176-28.8768-86.6816-117.3504-118.272-137.5232-120.2176z" p-id="4834"></path><path d="M532.224 711.4752c-8.2432 14.4896-25.088 20.5312-37.2736 13.3632-12.288-6.9632-15.2576-24.4736-6.9632-38.912 8.2944-14.592 25.0368-20.5824 37.2736-13.4656 12.288 7.168 15.2576 24.6784 6.9632 39.0144m-129.5872 124.928a69.3248 69.3248 0 1 1 0-138.752 69.3248 69.3248 0 0 1 0 138.752m64.6144-285.6448c-109.2608 0-197.7856 77.4656-197.7856 173.1584 0 95.744 88.5248 173.1072 197.7856 173.1072s197.8368-77.4144 197.8368-173.056c0-95.744-88.576-173.2096-197.8368-173.2096M906.9056 0.9216c-33.6896 0-67.072 4.864-99.0208 14.336a45.312 45.312 0 0 0-30.5664 56.1152 45.3632 45.3632 0 0 0 56.1664 30.5152 257.6896 257.6896 0 0 1 319.8464 321.5872 45.1584 45.1584 0 0 0 43.3664 58.1632 45.5168 45.5168 0 0 0 43.3152-32c9.8304-32.6144 14.848-66.5088 14.848-100.9664-0.2048-191.7952-156.16-347.7504-347.9552-347.7504" p-id="4835"></path></svg>
