<?xml version="1.0" standalone="no"?><!DOCTYPE svg PUBLIC "-//W3C//DTD SVG 1.1//EN" "http://www.w3.org/Graphics/SVG/1.1/DTD/svg11.dtd"><svg t="1573745738455" class="icon" viewBox="0 0 1210 1024" version="1.1" xmlns="http://www.w3.org/2000/svg" p-id="2200" xmlns:xlink="http://www.w3.org/1999/xlink" width="236.328125" height="200"><defs><style type="text/css"></style></defs><path d="M821.294545 309.387636c13.963636 0 27.694545 1.070545 41.332364 2.653091C825.483636 133.026909 640.558545 0 429.381818 0 193.349818 0 0 166.446545 0 377.856c0 122.042182 64.325818 222.208 171.799273 299.938909l-42.914909 133.678546 150.109091-77.870546c53.713455 10.984727 96.814545 22.295273 150.388363 22.295273 13.498182 0 26.856727-0.698182 40.075637-1.768727a341.410909 341.410909 0 0 1-13.21891-93.09091c0-194.094545 161.047273-351.650909 365.056-351.650909zM587.403636 179.944727c36.677818 0 66.373818 30.72 66.373819 68.654546 0 37.981091-29.696 68.701091-66.373819 68.701091-36.677818 0-66.373818-30.72-66.373818-68.701091 0-37.934545 29.696-68.654545 66.373818-68.654546z m-300.450909 138.705455c-36.677818 0-66.373818-30.72-66.373818-68.654546 0-37.934545 29.696-68.701091 66.373818-68.701091 36.677818 0 66.420364 30.766545 66.420364 68.701091s-29.742545 68.701091-66.420364 68.701091zM1210.181818 657.175273c0-177.617455-171.752727-322.420364-364.730182-322.420364-204.334545 0-365.195636 144.756364-365.195636 322.420364 0 177.943273 160.907636 322.420364 365.195636 322.420363 42.775273 0 85.876364-11.170909 128.837819-22.341818L1092.049455 1024l-32.256-111.057455C1145.949091 846.056727 1210.181818 757.341091 1210.181818 657.128727z m-476.904727-49.803637a47.010909 47.010909 0 0 1-41.611636-24.203636 50.408727 50.408727 0 0 1 0-49.384727 47.010909 47.010909 0 0 1 41.611636-24.203637c25.786182 0.372364 46.498909 22.155636 46.498909 48.872728 0 26.717091-20.712727 48.500364-46.545455 48.919272z m236.032 2.792728a47.010909 47.010909 0 0 1-41.565091-24.203637 50.408727 50.408727 0 0 1 0-49.431272 47.010909 47.010909 0 0 1 41.565091-24.203637c25.832727 0.418909 46.545455 22.202182 46.545454 48.872727 0 26.763636-20.712727 48.500364-46.545454 48.965819z" fill="#5FA3FF" p-id="2201"></path></svg>